<svg id="visual" viewBox="0 0 960 300" width="960" height="300" xmlns="http://www.w3.org/2000/svg"
    xmlns:xlink="http://www.w3.org/1999/xlink" version="1.1">
    <path
        d="M0 71L16 69.3C32 67.7 64 64.3 96 70C128 75.7 160 90.3 192 89.2C224 88 256 71 288 71.3C320 71.7 352 89.3 384 86.3C416 83.3 448 59.7 480 62.2C512 64.7 544 93.3 576 110C608 126.7 640 131.3 672 118.7C704 106 736 76 768 70.5C800 65 832 84 864 96.3C896 108.7 928 114.3 944 117.2L960 120L960 0L944 0C928 0 896 0 864 0C832 0 800 0 768 0C736 0 704 0 672 0C640 0 608 0 576 0C544 0 512 0 480 0C448 0 416 0 384 0C352 0 320 0 288 0C256 0 224 0 192 0C160 0 128 0 96 0C64 0 32 0 16 0L0 0Z"
        fill="#e6d7fc"></path>
    <path
        d="M0 38L16 35.3C32 32.7 64 27.3 96 25.7C128 24 160 26 192 31.3C224 36.7 256 45.3 288 54.8C320 64.3 352 74.7 384 73.5C416 72.3 448 59.7 480 47.7C512 35.7 544 24.3 576 28.3C608 32.3 640 51.7 672 53.7C704 55.7 736 40.3 768 31.3C800 22.3 832 19.7 864 28.8C896 38 928 59 944 69.5L960 80L960 0L944 0C928 0 896 0 864 0C832 0 800 0 768 0C736 0 704 0 672 0C640 0 608 0 576 0C544 0 512 0 480 0C448 0 416 0 384 0C352 0 320 0 288 0C256 0 224 0 192 0C160 0 128 0 96 0C64 0 32 0 16 0L0 0Z"
        fill="#4f2091"></path>
</svg>