<svg id="visual" viewBox="0 0 900 300" width="900" height="300" xmlns="http://www.w3.org/2000/svg"
    xmlns:xlink="http://www.w3.org/1999/xlink" version="1.1">
    <path
        d="M0 187L15 189.2C30 191.3 60 195.7 90 196.7C120 197.7 150 195.3 180 192.5C210 189.7 240 186.3 270 189.3C300 192.3 330 201.7 360 205.2C390 208.7 420 206.3 450 206.2C480 206 510 208 540 206C570 204 600 198 630 194.3C660 190.7 690 189.3 720 188.8C750 188.3 780 188.7 810 189.2C840 189.7 870 190.3 885 190.7L900 191L900 301L885 301C870 301 840 301 810 301C780 301 750 301 720 301C690 301 660 301 630 301C600 301 570 301 540 301C510 301 480 301 450 301C420 301 390 301 360 301C330 301 300 301 270 301C240 301 210 301 180 301C150 301 120 301 90 301C60 301 30 301 15 301L0 301Z"
        fill="#4f2091"></path>
    <path
        d="M0 231L15 232.7C30 234.3 60 237.7 90 234.7C120 231.7 150 222.3 180 222.3C210 222.3 240 231.7 270 232.7C300 233.7 330 226.3 360 223.3C390 220.3 420 221.7 450 222.8C480 224 510 225 540 224.2C570 223.3 600 220.7 630 219C660 217.3 690 216.7 720 217.7C750 218.7 780 221.3 810 224.8C840 228.3 870 232.7 885 234.8L900 237L900 301L885 301C870 301 840 301 810 301C780 301 750 301 720 301C690 301 660 301 630 301C600 301 570 301 540 301C510 301 480 301 450 301C420 301 390 301 360 301C330 301 300 301 270 301C240 301 210 301 180 301C150 301 120 301 90 301C60 301 30 301 15 301L0 301Z"
        fill="#825cb5"></path>
    <path
        d="M0 255L15 254.2C30 253.3 60 251.7 90 252.7C120 253.7 150 257.3 180 255.5C210 253.7 240 246.3 270 242.5C300 238.7 330 238.3 360 241.5C390 244.7 420 251.3 450 253.2C480 255 510 252 540 248.7C570 245.3 600 241.7 630 241.7C660 241.7 690 245.3 720 247C750 248.7 780 248.3 810 248.5C840 248.7 870 249.3 885 249.7L900 250L900 301L885 301C870 301 840 301 810 301C780 301 750 301 720 301C690 301 660 301 630 301C600 301 570 301 540 301C510 301 480 301 450 301C420 301 390 301 360 301C330 301 300 301 270 301C240 301 210 301 180 301C150 301 120 301 90 301C60 301 30 301 15 301L0 301Z"
        fill="#b498d9"></path>
    <path
        d="M0 264L15 263C30 262 60 260 90 259.5C120 259 150 260 180 262.2C210 264.3 240 267.7 270 268C300 268.3 330 265.7 360 263.3C390 261 420 259 450 259C480 259 510 261 540 262.8C570 264.7 600 266.3 630 268.2C660 270 690 272 720 273C750 274 780 274 810 271.8C840 269.7 870 265.3 885 263.2L900 261L900 301L885 301C870 301 840 301 810 301C780 301 750 301 720 301C690 301 660 301 630 301C600 301 570 301 540 301C510 301 480 301 450 301C420 301 390 301 360 301C330 301 300 301 270 301C240 301 210 301 180 301C150 301 120 301 90 301C60 301 30 301 15 301L0 301Z"
        fill="#e6d7fc"></path>
</svg>